<svg xmlns="http://www.w3.org/2000/svg" width="50" height="50" viewBox="0 0 50 50">
    <path d="M45.855,18.083c-1.796-2.973-4.465-3.616-6.629-3.408c0.22-0.612,0.373-1.338,0.373-2.175c0-5.732-8.241-11-9.6-11 c-0.976,0-1.22,0.948-1.324,1.354c-0.182,0.702-0.296,1.013-1.129,1.048c-0.676,0.026-1.717-0.928-2.454-1.634 C24.293,1.503,23.662,0.9,22.9,0.9c-1.384,0-1.499,1.415-1.542,1.947c-0.018,0.221-0.051,0.632-0.117,0.72 c0,0-0.063,0.033-0.241,0.033c-0.843,0-1.758-0.87-2.493-1.569C17.756,1.317,17.108,0.7,16.3,0.7c-0.377,0-0.715,0.155-0.95,0.436 c-0.459,0.548-0.327,1.286-0.174,2.141c0.088,0.493,0.272,1.519,0.083,1.775c-0.011,0.015-0.068,0.042-0.154,0.053 c-0.013,0.001-0.027,0.002-0.041,0.002c-0.862,0-2.746-2.397-3.462-3.309C10.604,0.526,10.19,0,9.5,0 C7.929,0,7.929,2.558,7.929,3.398c0,1.045,0.143,4.715,1.987,8.077C11.72,14.762,14.516,16.5,18,16.5c0.043,0,0.086,0,0.13-0.001 c-4.083,3.335-10.252,8.66-12.092,11.795c-0.25,0.426-0.152,0.971,0.232,1.282c1.204,0.979,3.044,1.428,5.483,1.349 c-0.893,1.292-1.646,2.958-1.849,5.185c-0.044,0.491,0.275,0.941,0.753,1.061c0.883,0.22,4.191-0.434,6.451-0.99 c-0.673,2.174-1.418,5.442-0.845,6.972c0.16,0.425,0.589,0.685,1.04,0.644c1.857-0.192,3.98-1.016,5.504-1.684 c-0.511,1.831-0.833,3.478-0.907,5.247c-0.021,0.508,0.341,0.95,0.843,1.029c1.701,0.269,3.68-0.865,4.932-1.845 c0.07,0.195,0.137,0.395,0.203,0.593c0.412,1.231,0.924,2.765,2.521,2.765c0.419,0,0.794-0.262,0.938-0.654 c0.609-1.656,2.103-7.782,2.853-12.157C30.197,36.452,28.7,32.941,28.7,30.5c0-2.438,1.458-5.463,2.867-6.98 c0.374-0.406,1.009-0.428,1.413-0.052s0.428,1.009,0.052,1.414c-1.126,1.213-2.332,3.76-2.332,5.619 c0,1.475,0.832,4.131,3.815,4.615c2.569-0.382,4.185-2.22,4.185-4.915c0-1.398-0.507-3.453-0.9-4.837 c1.021,0.184,2.268,0.545,3.06,1.205c0.331,0.274,0.801,0.307,1.167,0.082c0.366-0.227,0.546-0.662,0.446-1.081 c-0.583-2.462-2.178-4.093-3.445-5.042c1.411-0.54,3.584-1.146,5.88-0.931c0.384,0.035,0.739-0.145,0.94-0.464 C46.048,18.812,46.051,18.406,45.855,18.083z M30,19c-1.104,0-2-0.896-2-2s0.896-2,2-2s2,0.896,2,2S31.104,19,30,19z"/>
</svg>